<mxfile host="app.diagrams.net" modified="2023-04-25T09:44:28.691Z" agent="Mozilla/5.0 (Windows NT 10.0; Win64; x64; rv:109.0) Gecko/20100101 Firefox/112.0" etag="p9I6sY0BipCyv3-SNsNZ" version="21.2.1" type="device">
  <diagram name="1 oldal" id="gXPAHGWmaCvIHfq5NHSH">
    <mxGraphModel dx="1687" dy="920" grid="1" gridSize="10" guides="1" tooltips="1" connect="1" arrows="1" fold="1" page="1" pageScale="1" pageWidth="827" pageHeight="1169" math="0" shadow="0">
      <root>
        <mxCell id="0" />
        <mxCell id="1" parent="0" />
        <mxCell id="YD-UjLcO_RRgTSXVY19a-29" value="" style="group" vertex="1" connectable="0" parent="1">
          <mxGeometry x="360" y="10" width="90" height="90" as="geometry" />
        </mxCell>
        <mxCell id="YD-UjLcO_RRgTSXVY19a-2" value="" style="rounded=0;whiteSpace=wrap;html=1;container=0;" vertex="1" parent="YD-UjLcO_RRgTSXVY19a-29">
          <mxGeometry width="90" height="30" as="geometry" />
        </mxCell>
        <mxCell id="YD-UjLcO_RRgTSXVY19a-3" value="" style="rounded=0;whiteSpace=wrap;html=1;container=0;" vertex="1" parent="YD-UjLcO_RRgTSXVY19a-29">
          <mxGeometry y="30" width="90" height="30" as="geometry" />
        </mxCell>
        <mxCell id="YD-UjLcO_RRgTSXVY19a-4" value="" style="rounded=0;whiteSpace=wrap;html=1;container=0;" vertex="1" parent="YD-UjLcO_RRgTSXVY19a-29">
          <mxGeometry y="60" width="90" height="30" as="geometry" />
        </mxCell>
        <mxCell id="YD-UjLcO_RRgTSXVY19a-5" value="0" style="rounded=0;whiteSpace=wrap;html=1;container=0;" vertex="1" parent="YD-UjLcO_RRgTSXVY19a-29">
          <mxGeometry x="30" y="60" width="30" height="30" as="geometry" />
        </mxCell>
        <mxCell id="YD-UjLcO_RRgTSXVY19a-6" value="1" style="rounded=0;whiteSpace=wrap;html=1;container=0;" vertex="1" parent="YD-UjLcO_RRgTSXVY19a-29">
          <mxGeometry x="30" width="30" height="30" as="geometry" />
        </mxCell>
        <mxCell id="YD-UjLcO_RRgTSXVY19a-7" value="4" style="rounded=0;whiteSpace=wrap;html=1;container=0;" vertex="1" parent="YD-UjLcO_RRgTSXVY19a-29">
          <mxGeometry y="30" width="30" height="30" as="geometry" />
        </mxCell>
        <mxCell id="YD-UjLcO_RRgTSXVY19a-23" value="3" style="rounded=0;whiteSpace=wrap;html=1;container=0;" vertex="1" parent="YD-UjLcO_RRgTSXVY19a-29">
          <mxGeometry width="30" height="30" as="geometry" />
        </mxCell>
        <mxCell id="YD-UjLcO_RRgTSXVY19a-24" value="7" style="rounded=0;whiteSpace=wrap;html=1;container=0;" vertex="1" parent="YD-UjLcO_RRgTSXVY19a-29">
          <mxGeometry x="30" y="30" width="30" height="30" as="geometry" />
        </mxCell>
        <mxCell id="YD-UjLcO_RRgTSXVY19a-25" value="5" style="rounded=0;whiteSpace=wrap;html=1;container=0;" vertex="1" parent="YD-UjLcO_RRgTSXVY19a-29">
          <mxGeometry x="60" y="30" width="30" height="30" as="geometry" />
        </mxCell>
        <mxCell id="YD-UjLcO_RRgTSXVY19a-26" value="2" style="rounded=0;whiteSpace=wrap;html=1;container=0;" vertex="1" parent="YD-UjLcO_RRgTSXVY19a-29">
          <mxGeometry x="60" width="30" height="30" as="geometry" />
        </mxCell>
        <mxCell id="YD-UjLcO_RRgTSXVY19a-27" value="8" style="rounded=0;whiteSpace=wrap;html=1;container=0;" vertex="1" parent="YD-UjLcO_RRgTSXVY19a-29">
          <mxGeometry x="60" y="60" width="30" height="30" as="geometry" />
        </mxCell>
        <mxCell id="YD-UjLcO_RRgTSXVY19a-28" value="6" style="rounded=0;whiteSpace=wrap;html=1;container=0;" vertex="1" parent="YD-UjLcO_RRgTSXVY19a-29">
          <mxGeometry y="60" width="30" height="30" as="geometry" />
        </mxCell>
        <mxCell id="YD-UjLcO_RRgTSXVY19a-45" value="" style="group" vertex="1" connectable="0" parent="1">
          <mxGeometry x="240" y="130" width="90" height="90" as="geometry" />
        </mxCell>
        <mxCell id="YD-UjLcO_RRgTSXVY19a-46" value="" style="rounded=0;whiteSpace=wrap;html=1;container=0;" vertex="1" parent="YD-UjLcO_RRgTSXVY19a-45">
          <mxGeometry width="90" height="30" as="geometry" />
        </mxCell>
        <mxCell id="YD-UjLcO_RRgTSXVY19a-47" value="" style="rounded=0;whiteSpace=wrap;html=1;container=0;" vertex="1" parent="YD-UjLcO_RRgTSXVY19a-45">
          <mxGeometry y="30" width="90" height="30" as="geometry" />
        </mxCell>
        <mxCell id="YD-UjLcO_RRgTSXVY19a-48" value="" style="rounded=0;whiteSpace=wrap;html=1;container=0;" vertex="1" parent="YD-UjLcO_RRgTSXVY19a-45">
          <mxGeometry y="60" width="90" height="30" as="geometry" />
        </mxCell>
        <mxCell id="YD-UjLcO_RRgTSXVY19a-49" value="6" style="rounded=0;whiteSpace=wrap;html=1;container=0;" vertex="1" parent="YD-UjLcO_RRgTSXVY19a-45">
          <mxGeometry x="30" y="60" width="30" height="30" as="geometry" />
        </mxCell>
        <mxCell id="YD-UjLcO_RRgTSXVY19a-50" value="1" style="rounded=0;whiteSpace=wrap;html=1;container=0;" vertex="1" parent="YD-UjLcO_RRgTSXVY19a-45">
          <mxGeometry x="30" width="30" height="30" as="geometry" />
        </mxCell>
        <mxCell id="YD-UjLcO_RRgTSXVY19a-51" value="4" style="rounded=0;whiteSpace=wrap;html=1;container=0;" vertex="1" parent="YD-UjLcO_RRgTSXVY19a-45">
          <mxGeometry y="30" width="30" height="30" as="geometry" />
        </mxCell>
        <mxCell id="YD-UjLcO_RRgTSXVY19a-52" value="3" style="rounded=0;whiteSpace=wrap;html=1;container=0;" vertex="1" parent="YD-UjLcO_RRgTSXVY19a-45">
          <mxGeometry width="30" height="30" as="geometry" />
        </mxCell>
        <mxCell id="YD-UjLcO_RRgTSXVY19a-53" value="7" style="rounded=0;whiteSpace=wrap;html=1;container=0;" vertex="1" parent="YD-UjLcO_RRgTSXVY19a-45">
          <mxGeometry x="30" y="30" width="30" height="30" as="geometry" />
        </mxCell>
        <mxCell id="YD-UjLcO_RRgTSXVY19a-54" value="5" style="rounded=0;whiteSpace=wrap;html=1;container=0;" vertex="1" parent="YD-UjLcO_RRgTSXVY19a-45">
          <mxGeometry x="60" y="30" width="30" height="30" as="geometry" />
        </mxCell>
        <mxCell id="YD-UjLcO_RRgTSXVY19a-55" value="2" style="rounded=0;whiteSpace=wrap;html=1;container=0;" vertex="1" parent="YD-UjLcO_RRgTSXVY19a-45">
          <mxGeometry x="60" width="30" height="30" as="geometry" />
        </mxCell>
        <mxCell id="YD-UjLcO_RRgTSXVY19a-56" value="8" style="rounded=0;whiteSpace=wrap;html=1;container=0;" vertex="1" parent="YD-UjLcO_RRgTSXVY19a-45">
          <mxGeometry x="60" y="60" width="30" height="30" as="geometry" />
        </mxCell>
        <mxCell id="YD-UjLcO_RRgTSXVY19a-57" value="0" style="rounded=0;whiteSpace=wrap;html=1;container=0;" vertex="1" parent="YD-UjLcO_RRgTSXVY19a-45">
          <mxGeometry y="60" width="30" height="30" as="geometry" />
        </mxCell>
        <mxCell id="YD-UjLcO_RRgTSXVY19a-58" value="" style="group" vertex="1" connectable="0" parent="1">
          <mxGeometry x="360" y="130" width="90" height="90" as="geometry" />
        </mxCell>
        <mxCell id="YD-UjLcO_RRgTSXVY19a-59" value="" style="rounded=0;whiteSpace=wrap;html=1;container=0;" vertex="1" parent="YD-UjLcO_RRgTSXVY19a-58">
          <mxGeometry width="90" height="30" as="geometry" />
        </mxCell>
        <mxCell id="YD-UjLcO_RRgTSXVY19a-60" value="" style="rounded=0;whiteSpace=wrap;html=1;container=0;" vertex="1" parent="YD-UjLcO_RRgTSXVY19a-58">
          <mxGeometry y="30" width="90" height="30" as="geometry" />
        </mxCell>
        <mxCell id="YD-UjLcO_RRgTSXVY19a-61" value="" style="rounded=0;whiteSpace=wrap;html=1;container=0;" vertex="1" parent="YD-UjLcO_RRgTSXVY19a-58">
          <mxGeometry y="60" width="90" height="30" as="geometry" />
        </mxCell>
        <mxCell id="YD-UjLcO_RRgTSXVY19a-62" value="7" style="rounded=0;whiteSpace=wrap;html=1;container=0;" vertex="1" parent="YD-UjLcO_RRgTSXVY19a-58">
          <mxGeometry x="30" y="60" width="30" height="30" as="geometry" />
        </mxCell>
        <mxCell id="YD-UjLcO_RRgTSXVY19a-63" value="1" style="rounded=0;whiteSpace=wrap;html=1;container=0;" vertex="1" parent="YD-UjLcO_RRgTSXVY19a-58">
          <mxGeometry x="30" width="30" height="30" as="geometry" />
        </mxCell>
        <mxCell id="YD-UjLcO_RRgTSXVY19a-64" value="4" style="rounded=0;whiteSpace=wrap;html=1;container=0;" vertex="1" parent="YD-UjLcO_RRgTSXVY19a-58">
          <mxGeometry y="30" width="30" height="30" as="geometry" />
        </mxCell>
        <mxCell id="YD-UjLcO_RRgTSXVY19a-65" value="3" style="rounded=0;whiteSpace=wrap;html=1;container=0;" vertex="1" parent="YD-UjLcO_RRgTSXVY19a-58">
          <mxGeometry width="30" height="30" as="geometry" />
        </mxCell>
        <mxCell id="YD-UjLcO_RRgTSXVY19a-66" value="0" style="rounded=0;whiteSpace=wrap;html=1;container=0;" vertex="1" parent="YD-UjLcO_RRgTSXVY19a-58">
          <mxGeometry x="30" y="30" width="30" height="30" as="geometry" />
        </mxCell>
        <mxCell id="YD-UjLcO_RRgTSXVY19a-67" value="5" style="rounded=0;whiteSpace=wrap;html=1;container=0;" vertex="1" parent="YD-UjLcO_RRgTSXVY19a-58">
          <mxGeometry x="60" y="30" width="30" height="30" as="geometry" />
        </mxCell>
        <mxCell id="YD-UjLcO_RRgTSXVY19a-68" value="2" style="rounded=0;whiteSpace=wrap;html=1;container=0;" vertex="1" parent="YD-UjLcO_RRgTSXVY19a-58">
          <mxGeometry x="60" width="30" height="30" as="geometry" />
        </mxCell>
        <mxCell id="YD-UjLcO_RRgTSXVY19a-69" value="8" style="rounded=0;whiteSpace=wrap;html=1;container=0;" vertex="1" parent="YD-UjLcO_RRgTSXVY19a-58">
          <mxGeometry x="60" y="60" width="30" height="30" as="geometry" />
        </mxCell>
        <mxCell id="YD-UjLcO_RRgTSXVY19a-70" value="6" style="rounded=0;whiteSpace=wrap;html=1;container=0;" vertex="1" parent="YD-UjLcO_RRgTSXVY19a-58">
          <mxGeometry y="60" width="30" height="30" as="geometry" />
        </mxCell>
        <mxCell id="YD-UjLcO_RRgTSXVY19a-85" value="" style="group" vertex="1" connectable="0" parent="1">
          <mxGeometry x="480" y="130" width="90" height="90" as="geometry" />
        </mxCell>
        <mxCell id="YD-UjLcO_RRgTSXVY19a-86" value="" style="rounded=0;whiteSpace=wrap;html=1;container=0;" vertex="1" parent="YD-UjLcO_RRgTSXVY19a-85">
          <mxGeometry width="90" height="30" as="geometry" />
        </mxCell>
        <mxCell id="YD-UjLcO_RRgTSXVY19a-87" value="" style="rounded=0;whiteSpace=wrap;html=1;container=0;" vertex="1" parent="YD-UjLcO_RRgTSXVY19a-85">
          <mxGeometry y="30" width="90" height="30" as="geometry" />
        </mxCell>
        <mxCell id="YD-UjLcO_RRgTSXVY19a-88" value="" style="rounded=0;whiteSpace=wrap;html=1;container=0;" vertex="1" parent="YD-UjLcO_RRgTSXVY19a-85">
          <mxGeometry y="60" width="90" height="30" as="geometry" />
        </mxCell>
        <mxCell id="YD-UjLcO_RRgTSXVY19a-89" value="8" style="rounded=0;whiteSpace=wrap;html=1;container=0;" vertex="1" parent="YD-UjLcO_RRgTSXVY19a-85">
          <mxGeometry x="30" y="60" width="30" height="30" as="geometry" />
        </mxCell>
        <mxCell id="YD-UjLcO_RRgTSXVY19a-90" value="1" style="rounded=0;whiteSpace=wrap;html=1;container=0;" vertex="1" parent="YD-UjLcO_RRgTSXVY19a-85">
          <mxGeometry x="30" width="30" height="30" as="geometry" />
        </mxCell>
        <mxCell id="YD-UjLcO_RRgTSXVY19a-91" value="4" style="rounded=0;whiteSpace=wrap;html=1;container=0;" vertex="1" parent="YD-UjLcO_RRgTSXVY19a-85">
          <mxGeometry y="30" width="30" height="30" as="geometry" />
        </mxCell>
        <mxCell id="YD-UjLcO_RRgTSXVY19a-92" value="3" style="rounded=0;whiteSpace=wrap;html=1;container=0;" vertex="1" parent="YD-UjLcO_RRgTSXVY19a-85">
          <mxGeometry width="30" height="30" as="geometry" />
        </mxCell>
        <mxCell id="YD-UjLcO_RRgTSXVY19a-93" value="7" style="rounded=0;whiteSpace=wrap;html=1;container=0;" vertex="1" parent="YD-UjLcO_RRgTSXVY19a-85">
          <mxGeometry x="30" y="30" width="30" height="30" as="geometry" />
        </mxCell>
        <mxCell id="YD-UjLcO_RRgTSXVY19a-94" value="5" style="rounded=0;whiteSpace=wrap;html=1;container=0;" vertex="1" parent="YD-UjLcO_RRgTSXVY19a-85">
          <mxGeometry x="60" y="30" width="30" height="30" as="geometry" />
        </mxCell>
        <mxCell id="YD-UjLcO_RRgTSXVY19a-95" value="2" style="rounded=0;whiteSpace=wrap;html=1;container=0;" vertex="1" parent="YD-UjLcO_RRgTSXVY19a-85">
          <mxGeometry x="60" width="30" height="30" as="geometry" />
        </mxCell>
        <mxCell id="YD-UjLcO_RRgTSXVY19a-96" value="0" style="rounded=0;whiteSpace=wrap;html=1;container=0;" vertex="1" parent="YD-UjLcO_RRgTSXVY19a-85">
          <mxGeometry x="60" y="60" width="30" height="30" as="geometry" />
        </mxCell>
        <mxCell id="YD-UjLcO_RRgTSXVY19a-97" value="6" style="rounded=0;whiteSpace=wrap;html=1;container=0;" vertex="1" parent="YD-UjLcO_RRgTSXVY19a-85">
          <mxGeometry y="60" width="30" height="30" as="geometry" />
        </mxCell>
        <mxCell id="YD-UjLcO_RRgTSXVY19a-98" value="" style="group" vertex="1" connectable="0" parent="1">
          <mxGeometry x="120" y="250" width="90" height="90" as="geometry" />
        </mxCell>
        <mxCell id="YD-UjLcO_RRgTSXVY19a-99" value="" style="rounded=0;whiteSpace=wrap;html=1;container=0;" vertex="1" parent="YD-UjLcO_RRgTSXVY19a-98">
          <mxGeometry width="90" height="30" as="geometry" />
        </mxCell>
        <mxCell id="YD-UjLcO_RRgTSXVY19a-100" value="" style="rounded=0;whiteSpace=wrap;html=1;container=0;" vertex="1" parent="YD-UjLcO_RRgTSXVY19a-98">
          <mxGeometry y="30" width="90" height="30" as="geometry" />
        </mxCell>
        <mxCell id="YD-UjLcO_RRgTSXVY19a-101" value="" style="rounded=0;whiteSpace=wrap;html=1;container=0;" vertex="1" parent="YD-UjLcO_RRgTSXVY19a-98">
          <mxGeometry y="60" width="90" height="30" as="geometry" />
        </mxCell>
        <mxCell id="YD-UjLcO_RRgTSXVY19a-102" value="6" style="rounded=0;whiteSpace=wrap;html=1;container=0;" vertex="1" parent="YD-UjLcO_RRgTSXVY19a-98">
          <mxGeometry x="30" y="60" width="30" height="30" as="geometry" />
        </mxCell>
        <mxCell id="YD-UjLcO_RRgTSXVY19a-103" value="1" style="rounded=0;whiteSpace=wrap;html=1;container=0;" vertex="1" parent="YD-UjLcO_RRgTSXVY19a-98">
          <mxGeometry x="30" width="30" height="30" as="geometry" />
        </mxCell>
        <mxCell id="YD-UjLcO_RRgTSXVY19a-104" value="0" style="rounded=0;whiteSpace=wrap;html=1;container=0;" vertex="1" parent="YD-UjLcO_RRgTSXVY19a-98">
          <mxGeometry y="30" width="30" height="30" as="geometry" />
        </mxCell>
        <mxCell id="YD-UjLcO_RRgTSXVY19a-105" value="3" style="rounded=0;whiteSpace=wrap;html=1;container=0;" vertex="1" parent="YD-UjLcO_RRgTSXVY19a-98">
          <mxGeometry width="30" height="30" as="geometry" />
        </mxCell>
        <mxCell id="YD-UjLcO_RRgTSXVY19a-106" value="7" style="rounded=0;whiteSpace=wrap;html=1;container=0;" vertex="1" parent="YD-UjLcO_RRgTSXVY19a-98">
          <mxGeometry x="30" y="30" width="30" height="30" as="geometry" />
        </mxCell>
        <mxCell id="YD-UjLcO_RRgTSXVY19a-107" value="5" style="rounded=0;whiteSpace=wrap;html=1;container=0;" vertex="1" parent="YD-UjLcO_RRgTSXVY19a-98">
          <mxGeometry x="60" y="30" width="30" height="30" as="geometry" />
        </mxCell>
        <mxCell id="YD-UjLcO_RRgTSXVY19a-108" value="2" style="rounded=0;whiteSpace=wrap;html=1;container=0;" vertex="1" parent="YD-UjLcO_RRgTSXVY19a-98">
          <mxGeometry x="60" width="30" height="30" as="geometry" />
        </mxCell>
        <mxCell id="YD-UjLcO_RRgTSXVY19a-109" value="8" style="rounded=0;whiteSpace=wrap;html=1;container=0;" vertex="1" parent="YD-UjLcO_RRgTSXVY19a-98">
          <mxGeometry x="60" y="60" width="30" height="30" as="geometry" />
        </mxCell>
        <mxCell id="YD-UjLcO_RRgTSXVY19a-110" value="4" style="rounded=0;whiteSpace=wrap;html=1;container=0;" vertex="1" parent="YD-UjLcO_RRgTSXVY19a-98">
          <mxGeometry y="60" width="30" height="30" as="geometry" />
        </mxCell>
        <mxCell id="YD-UjLcO_RRgTSXVY19a-111" value="" style="group" vertex="1" connectable="0" parent="1">
          <mxGeometry x="240" y="300" width="90" height="90" as="geometry" />
        </mxCell>
        <mxCell id="YD-UjLcO_RRgTSXVY19a-112" value="" style="rounded=0;whiteSpace=wrap;html=1;container=0;" vertex="1" parent="YD-UjLcO_RRgTSXVY19a-111">
          <mxGeometry width="90" height="30" as="geometry" />
        </mxCell>
        <mxCell id="YD-UjLcO_RRgTSXVY19a-113" value="" style="rounded=0;whiteSpace=wrap;html=1;container=0;" vertex="1" parent="YD-UjLcO_RRgTSXVY19a-111">
          <mxGeometry y="30" width="90" height="30" as="geometry" />
        </mxCell>
        <mxCell id="YD-UjLcO_RRgTSXVY19a-114" value="" style="rounded=0;whiteSpace=wrap;html=1;container=0;" vertex="1" parent="YD-UjLcO_RRgTSXVY19a-111">
          <mxGeometry y="60" width="90" height="30" as="geometry" />
        </mxCell>
        <mxCell id="YD-UjLcO_RRgTSXVY19a-115" value="7" style="rounded=0;whiteSpace=wrap;html=1;container=0;" vertex="1" parent="YD-UjLcO_RRgTSXVY19a-111">
          <mxGeometry x="30" y="60" width="30" height="30" as="geometry" />
        </mxCell>
        <mxCell id="YD-UjLcO_RRgTSXVY19a-116" value="1" style="rounded=0;whiteSpace=wrap;html=1;container=0;" vertex="1" parent="YD-UjLcO_RRgTSXVY19a-111">
          <mxGeometry x="30" width="30" height="30" as="geometry" />
        </mxCell>
        <mxCell id="YD-UjLcO_RRgTSXVY19a-117" value="0" style="rounded=0;whiteSpace=wrap;html=1;container=0;" vertex="1" parent="YD-UjLcO_RRgTSXVY19a-111">
          <mxGeometry y="30" width="30" height="30" as="geometry" />
        </mxCell>
        <mxCell id="YD-UjLcO_RRgTSXVY19a-118" value="3" style="rounded=0;whiteSpace=wrap;html=1;container=0;" vertex="1" parent="YD-UjLcO_RRgTSXVY19a-111">
          <mxGeometry width="30" height="30" as="geometry" />
        </mxCell>
        <mxCell id="YD-UjLcO_RRgTSXVY19a-119" value="4" style="rounded=0;whiteSpace=wrap;html=1;container=0;" vertex="1" parent="YD-UjLcO_RRgTSXVY19a-111">
          <mxGeometry x="30" y="30" width="30" height="30" as="geometry" />
        </mxCell>
        <mxCell id="YD-UjLcO_RRgTSXVY19a-120" value="5" style="rounded=0;whiteSpace=wrap;html=1;container=0;" vertex="1" parent="YD-UjLcO_RRgTSXVY19a-111">
          <mxGeometry x="60" y="30" width="30" height="30" as="geometry" />
        </mxCell>
        <mxCell id="YD-UjLcO_RRgTSXVY19a-121" value="2" style="rounded=0;whiteSpace=wrap;html=1;container=0;" vertex="1" parent="YD-UjLcO_RRgTSXVY19a-111">
          <mxGeometry x="60" width="30" height="30" as="geometry" />
        </mxCell>
        <mxCell id="YD-UjLcO_RRgTSXVY19a-122" value="8" style="rounded=0;whiteSpace=wrap;html=1;container=0;" vertex="1" parent="YD-UjLcO_RRgTSXVY19a-111">
          <mxGeometry x="60" y="60" width="30" height="30" as="geometry" />
        </mxCell>
        <mxCell id="YD-UjLcO_RRgTSXVY19a-123" value="6" style="rounded=0;whiteSpace=wrap;html=1;container=0;" vertex="1" parent="YD-UjLcO_RRgTSXVY19a-111">
          <mxGeometry y="60" width="30" height="30" as="geometry" />
        </mxCell>
        <mxCell id="YD-UjLcO_RRgTSXVY19a-138" value="" style="group" vertex="1" connectable="0" parent="1">
          <mxGeometry x="360" y="310" width="90" height="90" as="geometry" />
        </mxCell>
        <mxCell id="YD-UjLcO_RRgTSXVY19a-139" value="" style="rounded=0;whiteSpace=wrap;html=1;container=0;" vertex="1" parent="YD-UjLcO_RRgTSXVY19a-138">
          <mxGeometry width="90" height="30" as="geometry" />
        </mxCell>
        <mxCell id="YD-UjLcO_RRgTSXVY19a-140" value="" style="rounded=0;whiteSpace=wrap;html=1;container=0;" vertex="1" parent="YD-UjLcO_RRgTSXVY19a-138">
          <mxGeometry y="30" width="90" height="30" as="geometry" />
        </mxCell>
        <mxCell id="YD-UjLcO_RRgTSXVY19a-141" value="" style="rounded=0;whiteSpace=wrap;html=1;container=0;" vertex="1" parent="YD-UjLcO_RRgTSXVY19a-138">
          <mxGeometry y="60" width="90" height="30" as="geometry" />
        </mxCell>
        <mxCell id="YD-UjLcO_RRgTSXVY19a-142" value="7" style="rounded=0;whiteSpace=wrap;html=1;container=0;" vertex="1" parent="YD-UjLcO_RRgTSXVY19a-138">
          <mxGeometry x="30" y="60" width="30" height="30" as="geometry" />
        </mxCell>
        <mxCell id="YD-UjLcO_RRgTSXVY19a-143" value="0" style="rounded=0;whiteSpace=wrap;html=1;container=0;" vertex="1" parent="YD-UjLcO_RRgTSXVY19a-138">
          <mxGeometry x="30" width="30" height="30" as="geometry" />
        </mxCell>
        <mxCell id="YD-UjLcO_RRgTSXVY19a-144" value="4" style="rounded=0;whiteSpace=wrap;html=1;container=0;" vertex="1" parent="YD-UjLcO_RRgTSXVY19a-138">
          <mxGeometry y="30" width="30" height="30" as="geometry" />
        </mxCell>
        <mxCell id="YD-UjLcO_RRgTSXVY19a-186" style="edgeStyle=orthogonalEdgeStyle;rounded=0;orthogonalLoop=1;jettySize=auto;html=1;exitX=1;exitY=0;exitDx=0;exitDy=0;" edge="1" parent="YD-UjLcO_RRgTSXVY19a-138" source="YD-UjLcO_RRgTSXVY19a-145">
          <mxGeometry relative="1" as="geometry">
            <mxPoint x="30.310344827586277" y="-90" as="targetPoint" />
          </mxGeometry>
        </mxCell>
        <mxCell id="YD-UjLcO_RRgTSXVY19a-145" value="3" style="rounded=0;whiteSpace=wrap;html=1;container=0;" vertex="1" parent="YD-UjLcO_RRgTSXVY19a-138">
          <mxGeometry width="30" height="30" as="geometry" />
        </mxCell>
        <mxCell id="YD-UjLcO_RRgTSXVY19a-146" value="1" style="rounded=0;whiteSpace=wrap;html=1;container=0;" vertex="1" parent="YD-UjLcO_RRgTSXVY19a-138">
          <mxGeometry x="30" y="30" width="30" height="30" as="geometry" />
        </mxCell>
        <mxCell id="YD-UjLcO_RRgTSXVY19a-147" value="5" style="rounded=0;whiteSpace=wrap;html=1;container=0;" vertex="1" parent="YD-UjLcO_RRgTSXVY19a-138">
          <mxGeometry x="60" y="30" width="30" height="30" as="geometry" />
        </mxCell>
        <mxCell id="YD-UjLcO_RRgTSXVY19a-148" value="2" style="rounded=0;whiteSpace=wrap;html=1;container=0;" vertex="1" parent="YD-UjLcO_RRgTSXVY19a-138">
          <mxGeometry x="60" width="30" height="30" as="geometry" />
        </mxCell>
        <mxCell id="YD-UjLcO_RRgTSXVY19a-149" value="8" style="rounded=0;whiteSpace=wrap;html=1;container=0;" vertex="1" parent="YD-UjLcO_RRgTSXVY19a-138">
          <mxGeometry x="60" y="60" width="30" height="30" as="geometry" />
        </mxCell>
        <mxCell id="YD-UjLcO_RRgTSXVY19a-150" value="6" style="rounded=0;whiteSpace=wrap;html=1;container=0;" vertex="1" parent="YD-UjLcO_RRgTSXVY19a-138">
          <mxGeometry y="60" width="30" height="30" as="geometry" />
        </mxCell>
        <mxCell id="YD-UjLcO_RRgTSXVY19a-151" value="" style="group" vertex="1" connectable="0" parent="1">
          <mxGeometry x="490" y="300" width="90" height="90" as="geometry" />
        </mxCell>
        <mxCell id="YD-UjLcO_RRgTSXVY19a-152" value="" style="rounded=0;whiteSpace=wrap;html=1;container=0;" vertex="1" parent="YD-UjLcO_RRgTSXVY19a-151">
          <mxGeometry width="90" height="30" as="geometry" />
        </mxCell>
        <mxCell id="YD-UjLcO_RRgTSXVY19a-153" value="" style="rounded=0;whiteSpace=wrap;html=1;container=0;" vertex="1" parent="YD-UjLcO_RRgTSXVY19a-151">
          <mxGeometry y="30" width="90" height="30" as="geometry" />
        </mxCell>
        <mxCell id="YD-UjLcO_RRgTSXVY19a-154" value="" style="rounded=0;whiteSpace=wrap;html=1;container=0;" vertex="1" parent="YD-UjLcO_RRgTSXVY19a-151">
          <mxGeometry y="60" width="90" height="30" as="geometry" />
        </mxCell>
        <mxCell id="YD-UjLcO_RRgTSXVY19a-155" value="7" style="rounded=0;whiteSpace=wrap;html=1;container=0;" vertex="1" parent="YD-UjLcO_RRgTSXVY19a-151">
          <mxGeometry x="30" y="60" width="30" height="30" as="geometry" />
        </mxCell>
        <mxCell id="YD-UjLcO_RRgTSXVY19a-156" value="1" style="rounded=0;whiteSpace=wrap;html=1;container=0;" vertex="1" parent="YD-UjLcO_RRgTSXVY19a-151">
          <mxGeometry x="30" width="30" height="30" as="geometry" />
        </mxCell>
        <mxCell id="YD-UjLcO_RRgTSXVY19a-157" value="4" style="rounded=0;whiteSpace=wrap;html=1;container=0;" vertex="1" parent="YD-UjLcO_RRgTSXVY19a-151">
          <mxGeometry y="30" width="30" height="30" as="geometry" />
        </mxCell>
        <mxCell id="YD-UjLcO_RRgTSXVY19a-181" style="edgeStyle=orthogonalEdgeStyle;rounded=0;orthogonalLoop=1;jettySize=auto;html=1;exitX=0.75;exitY=0;exitDx=0;exitDy=0;" edge="1" parent="YD-UjLcO_RRgTSXVY19a-151" source="YD-UjLcO_RRgTSXVY19a-158">
          <mxGeometry relative="1" as="geometry">
            <mxPoint x="-40.00000000000023" y="-80" as="targetPoint" />
          </mxGeometry>
        </mxCell>
        <mxCell id="YD-UjLcO_RRgTSXVY19a-158" value="3" style="rounded=0;whiteSpace=wrap;html=1;container=0;" vertex="1" parent="YD-UjLcO_RRgTSXVY19a-151">
          <mxGeometry width="30" height="30" as="geometry" />
        </mxCell>
        <mxCell id="YD-UjLcO_RRgTSXVY19a-159" value="5" style="rounded=0;whiteSpace=wrap;html=1;container=0;" vertex="1" parent="YD-UjLcO_RRgTSXVY19a-151">
          <mxGeometry x="30" y="30" width="30" height="30" as="geometry" />
        </mxCell>
        <mxCell id="YD-UjLcO_RRgTSXVY19a-160" value="0" style="rounded=0;whiteSpace=wrap;html=1;container=0;" vertex="1" parent="YD-UjLcO_RRgTSXVY19a-151">
          <mxGeometry x="60" y="30" width="30" height="30" as="geometry" />
        </mxCell>
        <mxCell id="YD-UjLcO_RRgTSXVY19a-161" value="2" style="rounded=0;whiteSpace=wrap;html=1;container=0;" vertex="1" parent="YD-UjLcO_RRgTSXVY19a-151">
          <mxGeometry x="60" width="30" height="30" as="geometry" />
        </mxCell>
        <mxCell id="YD-UjLcO_RRgTSXVY19a-162" value="8" style="rounded=0;whiteSpace=wrap;html=1;container=0;" vertex="1" parent="YD-UjLcO_RRgTSXVY19a-151">
          <mxGeometry x="60" y="60" width="30" height="30" as="geometry" />
        </mxCell>
        <mxCell id="YD-UjLcO_RRgTSXVY19a-163" value="6" style="rounded=0;whiteSpace=wrap;html=1;container=0;" vertex="1" parent="YD-UjLcO_RRgTSXVY19a-151">
          <mxGeometry y="60" width="30" height="30" as="geometry" />
        </mxCell>
        <mxCell id="YD-UjLcO_RRgTSXVY19a-164" value="" style="group" vertex="1" connectable="0" parent="1">
          <mxGeometry x="600" y="250" width="90" height="90" as="geometry" />
        </mxCell>
        <mxCell id="YD-UjLcO_RRgTSXVY19a-165" value="" style="rounded=0;whiteSpace=wrap;html=1;container=0;" vertex="1" parent="YD-UjLcO_RRgTSXVY19a-164">
          <mxGeometry width="90" height="30" as="geometry" />
        </mxCell>
        <mxCell id="YD-UjLcO_RRgTSXVY19a-166" value="" style="rounded=0;whiteSpace=wrap;html=1;container=0;" vertex="1" parent="YD-UjLcO_RRgTSXVY19a-164">
          <mxGeometry y="30" width="90" height="30" as="geometry" />
        </mxCell>
        <mxCell id="YD-UjLcO_RRgTSXVY19a-167" value="" style="rounded=0;whiteSpace=wrap;html=1;container=0;" vertex="1" parent="YD-UjLcO_RRgTSXVY19a-164">
          <mxGeometry y="60" width="90" height="30" as="geometry" />
        </mxCell>
        <mxCell id="YD-UjLcO_RRgTSXVY19a-168" value="8" style="rounded=0;whiteSpace=wrap;html=1;container=0;" vertex="1" parent="YD-UjLcO_RRgTSXVY19a-164">
          <mxGeometry x="30" y="60" width="30" height="30" as="geometry" />
        </mxCell>
        <mxCell id="YD-UjLcO_RRgTSXVY19a-169" value="1" style="rounded=0;whiteSpace=wrap;html=1;container=0;" vertex="1" parent="YD-UjLcO_RRgTSXVY19a-164">
          <mxGeometry x="30" width="30" height="30" as="geometry" />
        </mxCell>
        <mxCell id="YD-UjLcO_RRgTSXVY19a-170" value="4" style="rounded=0;whiteSpace=wrap;html=1;container=0;" vertex="1" parent="YD-UjLcO_RRgTSXVY19a-164">
          <mxGeometry y="30" width="30" height="30" as="geometry" />
        </mxCell>
        <mxCell id="YD-UjLcO_RRgTSXVY19a-171" value="3" style="rounded=0;whiteSpace=wrap;html=1;container=0;" vertex="1" parent="YD-UjLcO_RRgTSXVY19a-164">
          <mxGeometry width="30" height="30" as="geometry" />
        </mxCell>
        <mxCell id="YD-UjLcO_RRgTSXVY19a-172" value="7" style="rounded=0;whiteSpace=wrap;html=1;container=0;" vertex="1" parent="YD-UjLcO_RRgTSXVY19a-164">
          <mxGeometry x="30" y="30" width="30" height="30" as="geometry" />
        </mxCell>
        <mxCell id="YD-UjLcO_RRgTSXVY19a-173" value="0" style="rounded=0;whiteSpace=wrap;html=1;container=0;" vertex="1" parent="YD-UjLcO_RRgTSXVY19a-164">
          <mxGeometry x="60" y="30" width="30" height="30" as="geometry" />
        </mxCell>
        <mxCell id="YD-UjLcO_RRgTSXVY19a-174" value="2" style="rounded=0;whiteSpace=wrap;html=1;container=0;" vertex="1" parent="YD-UjLcO_RRgTSXVY19a-164">
          <mxGeometry x="60" width="30" height="30" as="geometry" />
        </mxCell>
        <mxCell id="YD-UjLcO_RRgTSXVY19a-175" value="5" style="rounded=0;whiteSpace=wrap;html=1;container=0;" vertex="1" parent="YD-UjLcO_RRgTSXVY19a-164">
          <mxGeometry x="60" y="60" width="30" height="30" as="geometry" />
        </mxCell>
        <mxCell id="YD-UjLcO_RRgTSXVY19a-176" value="6" style="rounded=0;whiteSpace=wrap;html=1;container=0;" vertex="1" parent="YD-UjLcO_RRgTSXVY19a-164">
          <mxGeometry y="60" width="30" height="30" as="geometry" />
        </mxCell>
        <mxCell id="YD-UjLcO_RRgTSXVY19a-177" style="edgeStyle=orthogonalEdgeStyle;rounded=0;orthogonalLoop=1;jettySize=auto;html=1;exitX=0.5;exitY=0;exitDx=0;exitDy=0;entryX=1;entryY=0.5;entryDx=0;entryDy=0;" edge="1" parent="1" source="YD-UjLcO_RRgTSXVY19a-169" target="YD-UjLcO_RRgTSXVY19a-94">
          <mxGeometry relative="1" as="geometry" />
        </mxCell>
        <mxCell id="YD-UjLcO_RRgTSXVY19a-178" style="edgeStyle=orthogonalEdgeStyle;rounded=0;orthogonalLoop=1;jettySize=auto;html=1;exitX=1;exitY=1;exitDx=0;exitDy=0;entryX=1;entryY=0;entryDx=0;entryDy=0;" edge="1" parent="1" source="YD-UjLcO_RRgTSXVY19a-94" target="YD-UjLcO_RRgTSXVY19a-171">
          <mxGeometry relative="1" as="geometry" />
        </mxCell>
        <mxCell id="YD-UjLcO_RRgTSXVY19a-179" style="edgeStyle=orthogonalEdgeStyle;rounded=0;orthogonalLoop=1;jettySize=auto;html=1;exitX=0.5;exitY=1;exitDx=0;exitDy=0;entryX=0.25;entryY=0;entryDx=0;entryDy=0;" edge="1" parent="1" source="YD-UjLcO_RRgTSXVY19a-69" target="YD-UjLcO_RRgTSXVY19a-156">
          <mxGeometry relative="1" as="geometry" />
        </mxCell>
        <mxCell id="YD-UjLcO_RRgTSXVY19a-184" style="edgeStyle=orthogonalEdgeStyle;rounded=0;orthogonalLoop=1;jettySize=auto;html=1;exitX=0.5;exitY=1;exitDx=0;exitDy=0;entryX=0.75;entryY=0;entryDx=0;entryDy=0;" edge="1" parent="1" source="YD-UjLcO_RRgTSXVY19a-70" target="YD-UjLcO_RRgTSXVY19a-116">
          <mxGeometry relative="1" as="geometry" />
        </mxCell>
        <mxCell id="YD-UjLcO_RRgTSXVY19a-185" style="edgeStyle=orthogonalEdgeStyle;rounded=0;orthogonalLoop=1;jettySize=auto;html=1;exitX=0.25;exitY=0;exitDx=0;exitDy=0;entryX=0;entryY=1;entryDx=0;entryDy=0;" edge="1" parent="1" source="YD-UjLcO_RRgTSXVY19a-121" target="YD-UjLcO_RRgTSXVY19a-70">
          <mxGeometry relative="1" as="geometry" />
        </mxCell>
        <mxCell id="YD-UjLcO_RRgTSXVY19a-187" style="edgeStyle=orthogonalEdgeStyle;rounded=0;orthogonalLoop=1;jettySize=auto;html=1;exitX=1;exitY=1;exitDx=0;exitDy=0;entryX=1;entryY=0;entryDx=0;entryDy=0;" edge="1" parent="1" source="YD-UjLcO_RRgTSXVY19a-62" target="YD-UjLcO_RRgTSXVY19a-143">
          <mxGeometry relative="1" as="geometry" />
        </mxCell>
        <mxCell id="YD-UjLcO_RRgTSXVY19a-188" style="edgeStyle=orthogonalEdgeStyle;rounded=0;orthogonalLoop=1;jettySize=auto;html=1;exitX=0;exitY=0;exitDx=0;exitDy=0;entryX=0;entryY=1;entryDx=0;entryDy=0;" edge="1" parent="1" source="YD-UjLcO_RRgTSXVY19a-63" target="YD-UjLcO_RRgTSXVY19a-5">
          <mxGeometry relative="1" as="geometry" />
        </mxCell>
        <mxCell id="YD-UjLcO_RRgTSXVY19a-199" value="&lt;div&gt;É&lt;/div&gt;" style="edgeLabel;html=1;align=center;verticalAlign=middle;resizable=0;points=[];" vertex="1" connectable="0" parent="YD-UjLcO_RRgTSXVY19a-188">
          <mxGeometry x="0.7074" y="-1" relative="1" as="geometry">
            <mxPoint x="39" y="11" as="offset" />
          </mxGeometry>
        </mxCell>
        <mxCell id="YD-UjLcO_RRgTSXVY19a-189" style="edgeStyle=orthogonalEdgeStyle;rounded=0;orthogonalLoop=1;jettySize=auto;html=1;exitX=1;exitY=1;exitDx=0;exitDy=0;entryX=1;entryY=0;entryDx=0;entryDy=0;" edge="1" parent="1" source="YD-UjLcO_RRgTSXVY19a-5" target="YD-UjLcO_RRgTSXVY19a-63">
          <mxGeometry relative="1" as="geometry" />
        </mxCell>
        <mxCell id="YD-UjLcO_RRgTSXVY19a-192" style="edgeStyle=orthogonalEdgeStyle;rounded=0;orthogonalLoop=1;jettySize=auto;html=1;exitX=1;exitY=0.5;exitDx=0;exitDy=0;entryX=1;entryY=0;entryDx=0;entryDy=0;" edge="1" parent="1" source="YD-UjLcO_RRgTSXVY19a-25" target="YD-UjLcO_RRgTSXVY19a-95">
          <mxGeometry relative="1" as="geometry" />
        </mxCell>
        <mxCell id="YD-UjLcO_RRgTSXVY19a-193" style="edgeStyle=orthogonalEdgeStyle;rounded=0;orthogonalLoop=1;jettySize=auto;html=1;exitX=0;exitY=0;exitDx=0;exitDy=0;entryX=1;entryY=0.75;entryDx=0;entryDy=0;" edge="1" parent="1" source="YD-UjLcO_RRgTSXVY19a-92" target="YD-UjLcO_RRgTSXVY19a-25">
          <mxGeometry relative="1" as="geometry" />
        </mxCell>
        <mxCell id="YD-UjLcO_RRgTSXVY19a-194" style="edgeStyle=orthogonalEdgeStyle;rounded=0;orthogonalLoop=1;jettySize=auto;html=1;exitX=1;exitY=0;exitDx=0;exitDy=0;entryX=0;entryY=0.75;entryDx=0;entryDy=0;" edge="1" parent="1" source="YD-UjLcO_RRgTSXVY19a-55" target="YD-UjLcO_RRgTSXVY19a-7">
          <mxGeometry relative="1" as="geometry" />
        </mxCell>
        <mxCell id="YD-UjLcO_RRgTSXVY19a-195" style="edgeStyle=orthogonalEdgeStyle;rounded=0;orthogonalLoop=1;jettySize=auto;html=1;exitX=0;exitY=0.25;exitDx=0;exitDy=0;entryX=0;entryY=0;entryDx=0;entryDy=0;" edge="1" parent="1" source="YD-UjLcO_RRgTSXVY19a-7" target="YD-UjLcO_RRgTSXVY19a-52">
          <mxGeometry relative="1" as="geometry" />
        </mxCell>
        <mxCell id="YD-UjLcO_RRgTSXVY19a-197" style="edgeStyle=orthogonalEdgeStyle;rounded=0;orthogonalLoop=1;jettySize=auto;html=1;exitX=0.5;exitY=0;exitDx=0;exitDy=0;entryX=0;entryY=0.5;entryDx=0;entryDy=0;" edge="1" parent="1" source="YD-UjLcO_RRgTSXVY19a-103" target="YD-UjLcO_RRgTSXVY19a-51">
          <mxGeometry relative="1" as="geometry" />
        </mxCell>
        <mxCell id="YD-UjLcO_RRgTSXVY19a-198" style="edgeStyle=orthogonalEdgeStyle;rounded=0;orthogonalLoop=1;jettySize=auto;html=1;exitX=0;exitY=1;exitDx=0;exitDy=0;entryX=0;entryY=0;entryDx=0;entryDy=0;" edge="1" parent="1" source="YD-UjLcO_RRgTSXVY19a-57" target="YD-UjLcO_RRgTSXVY19a-108">
          <mxGeometry relative="1" as="geometry">
            <Array as="points">
              <mxPoint x="240" y="230" />
              <mxPoint x="180" y="230" />
            </Array>
          </mxGeometry>
        </mxCell>
        <mxCell id="YD-UjLcO_RRgTSXVY19a-200" value="D" style="text;html=1;align=center;verticalAlign=middle;resizable=0;points=[];autosize=1;strokeColor=none;fillColor=none;" vertex="1" parent="1">
          <mxGeometry x="360" y="100" width="30" height="30" as="geometry" />
        </mxCell>
        <mxCell id="YD-UjLcO_RRgTSXVY19a-201" value="Ny" style="text;html=1;align=center;verticalAlign=middle;resizable=0;points=[];autosize=1;strokeColor=none;fillColor=none;" vertex="1" parent="1">
          <mxGeometry x="230" y="78" width="40" height="30" as="geometry" />
        </mxCell>
        <mxCell id="YD-UjLcO_RRgTSXVY19a-202" value="K" style="text;html=1;align=center;verticalAlign=middle;resizable=0;points=[];autosize=1;strokeColor=none;fillColor=none;" vertex="1" parent="1">
          <mxGeometry x="300" y="78" width="30" height="30" as="geometry" />
        </mxCell>
        <mxCell id="YD-UjLcO_RRgTSXVY19a-204" value="K" style="text;html=1;align=center;verticalAlign=middle;resizable=0;points=[];autosize=1;strokeColor=none;fillColor=none;" vertex="1" parent="1">
          <mxGeometry x="560" y="78" width="30" height="30" as="geometry" />
        </mxCell>
        <mxCell id="YD-UjLcO_RRgTSXVY19a-205" value="Ny" style="text;html=1;align=center;verticalAlign=middle;resizable=0;points=[];autosize=1;strokeColor=none;fillColor=none;" vertex="1" parent="1">
          <mxGeometry x="470" y="78" width="40" height="30" as="geometry" />
        </mxCell>
        <mxCell id="YD-UjLcO_RRgTSXVY19a-206" value="&lt;div&gt;É&lt;/div&gt;" style="edgeLabel;html=1;align=center;verticalAlign=middle;resizable=0;points=[];" vertex="1" connectable="0" parent="1">
          <mxGeometry x="440" y="114.99571428571434" as="geometry">
            <mxPoint x="-234" y="97" as="offset" />
          </mxGeometry>
        </mxCell>
        <mxCell id="YD-UjLcO_RRgTSXVY19a-207" value="&lt;div&gt;É&lt;/div&gt;" style="edgeLabel;html=1;align=center;verticalAlign=middle;resizable=0;points=[];" vertex="1" connectable="0" parent="1">
          <mxGeometry x="450" y="135.28571428571433" as="geometry">
            <mxPoint x="137" y="70" as="offset" />
          </mxGeometry>
        </mxCell>
        <mxCell id="YD-UjLcO_RRgTSXVY19a-208" value="D" style="text;html=1;align=center;verticalAlign=middle;resizable=0;points=[];autosize=1;strokeColor=none;fillColor=none;" vertex="1" parent="1">
          <mxGeometry x="640" y="190" width="30" height="30" as="geometry" />
        </mxCell>
        <mxCell id="YD-UjLcO_RRgTSXVY19a-211" value="D" style="text;html=1;align=center;verticalAlign=middle;resizable=0;points=[];autosize=1;strokeColor=none;fillColor=none;" vertex="1" parent="1">
          <mxGeometry x="140" y="190" width="30" height="30" as="geometry" />
        </mxCell>
        <mxCell id="YD-UjLcO_RRgTSXVY19a-212" value="D" style="text;html=1;align=center;verticalAlign=middle;resizable=0;points=[];autosize=1;strokeColor=none;fillColor=none;" vertex="1" parent="1">
          <mxGeometry x="360" y="270" width="30" height="30" as="geometry" />
        </mxCell>
        <mxCell id="YD-UjLcO_RRgTSXVY19a-213" value="&lt;div&gt;É&lt;/div&gt;" style="edgeLabel;html=1;align=center;verticalAlign=middle;resizable=0;points=[];" vertex="1" connectable="0" parent="1">
          <mxGeometry x="300" y="219.9957142857143" as="geometry">
            <mxPoint x="137" y="70" as="offset" />
          </mxGeometry>
        </mxCell>
        <mxCell id="YD-UjLcO_RRgTSXVY19a-214" value="Ny" style="text;html=1;align=center;verticalAlign=middle;resizable=0;points=[];autosize=1;strokeColor=none;fillColor=none;" vertex="1" parent="1">
          <mxGeometry x="300" y="230" width="40" height="30" as="geometry" />
        </mxCell>
        <mxCell id="YD-UjLcO_RRgTSXVY19a-215" value="K" style="text;html=1;align=center;verticalAlign=middle;resizable=0;points=[];autosize=1;strokeColor=none;fillColor=none;" vertex="1" parent="1">
          <mxGeometry x="320" y="260" width="30" height="30" as="geometry" />
        </mxCell>
        <mxCell id="YD-UjLcO_RRgTSXVY19a-216" value="K" style="text;html=1;align=center;verticalAlign=middle;resizable=0;points=[];autosize=1;strokeColor=none;fillColor=none;" vertex="1" parent="1">
          <mxGeometry x="460" y="230" width="30" height="30" as="geometry" />
        </mxCell>
        <mxCell id="YD-UjLcO_RRgTSXVY19a-217" value="Ny" style="text;html=1;align=center;verticalAlign=middle;resizable=0;points=[];autosize=1;strokeColor=none;fillColor=none;" vertex="1" parent="1">
          <mxGeometry x="460" y="260" width="40" height="30" as="geometry" />
        </mxCell>
      </root>
    </mxGraphModel>
  </diagram>
</mxfile>
